<?xml version="1.0" encoding="utf-8"?>
<!-- Generator: Adobe Illustrator 15.1.0, SVG Export Plug-In . SVG Version: 6.00 Build 0)  -->
<!DOCTYPE svg PUBLIC "-//W3C//DTD SVG 1.1//EN" "http://www.w3.org/Graphics/SVG/1.1/DTD/svg11.dtd">
<svg version="1.1" id="Layer_1" xmlns="http://www.w3.org/2000/svg" xmlns:xlink="http://www.w3.org/1999/xlink" x="0px" y="0px"
	 width="150px" height="32px" viewBox="0 0 150 32" enable-background="new 0 0 150 32" xml:space="preserve">
<g>
	<path fill="#A81B12" d="M29.41,11h-3.212l-3.648,4H26v10H9V6h23V0H8.868C6.299,0,4.16,0.305,2.582,1.557C0.904,2.825,0,4.2,0,6.328
		v19.431c0,1.803,0.566,3.191,1.572,4.494C2.641,31.528,4.207,32,6.148,32h20.593c2.353,0,4.159-0.412,5.871-1.58
		C34.356,29.186,35,27.745,35,25.759v-9.113c0-1.662-0.381-2.896-1.6-4.071C32.219,11.406,31.037,11,29.41,11z"/>
	<path fill="#A81B12" d="M65,25H48V0h-9v25.759c0,1.803,0.4,3.191,1.406,4.494C41.457,31.528,42.866,32,44.843,32H65.41
		c2.376,0,4.34-0.412,6.035-1.58C73.19,29.208,74,27.775,74,25.809V0h-9V25z"/>
	<path fill="#A81B12" d="M105.405,11H86V6h24V0H85.531c-2.506,0-4.472,0.305-6.113,1.557C77.739,2.868,77,4.25,77,6.328v4.833
		c0,2.322,0.483,4.127,1.637,5.133C79.797,17.314,81.498,18,83.953,18H103v7H77v7h26.407c2.34,0,4.316-0.379,6.062-1.481
		c1.729-1.186,2.53-2.658,2.53-4.761v-8.513c0-1.987-0.502-3.368-1.617-4.505C109.259,11.589,107.645,11,105.405,11z"/>
	<path fill="#A81B12" d="M148.443,1.582C147.371,0.313,146.005,0,144.146,0h-20.568c-2.552,0-4.521,0.305-6.115,1.557
		C115.746,2.868,115,4.25,115,6.328V32h9V18h17v14h9V5.727C150,3.891,149.551,2.718,148.443,1.582z M141,11h-17V7h17V11z"/>
</g>
</svg>
